<mxfile host="Electron" modified="2023-09-26T06:22:53.932Z" agent="Mozilla/5.0 (Windows NT 10.0; Win64; x64) AppleWebKit/537.36 (KHTML, like Gecko) draw.io/21.7.5 Chrome/114.0.5735.289 Electron/25.8.1 Safari/537.36" etag="uqdXQfeQl2v6GwHOqlaw" version="21.7.5" type="device">
  <diagram id="iXHAIwDOy_ckA0oU7I6M" name="Страница 1">
    <mxGraphModel dx="1434" dy="836" grid="1" gridSize="10" guides="1" tooltips="1" connect="1" arrows="1" fold="1" page="1" pageScale="1" pageWidth="827" pageHeight="1169" math="0" shadow="0">
      <root>
        <mxCell id="0" />
        <mxCell id="1" parent="0" />
        <mxCell id="sO1oYzhVz2CwoxDK4dTX-3" style="edgeStyle=orthogonalEdgeStyle;rounded=0;orthogonalLoop=1;jettySize=auto;html=1;exitX=0.5;exitY=1;exitDx=0;exitDy=0;entryX=0.5;entryY=0;entryDx=0;entryDy=0;endArrow=open;endFill=0;" parent="1" target="sO1oYzhVz2CwoxDK4dTX-2" edge="1">
          <mxGeometry relative="1" as="geometry">
            <mxPoint x="320" y="70" as="sourcePoint" />
          </mxGeometry>
        </mxCell>
        <mxCell id="sO1oYzhVz2CwoxDK4dTX-2" value="Ввод переменных N, i, S, znam" style="shape=parallelogram;perimeter=parallelogramPerimeter;whiteSpace=wrap;html=1;fixedSize=1;" parent="1" vertex="1">
          <mxGeometry x="240" y="100" width="160" height="40" as="geometry" />
        </mxCell>
        <mxCell id="sO1oYzhVz2CwoxDK4dTX-15" value="Начало" style="ellipse;whiteSpace=wrap;html=1;" parent="1" vertex="1">
          <mxGeometry x="260" width="120" height="70" as="geometry" />
        </mxCell>
        <mxCell id="TM_lnyqm9ptPYNRuYTzy-3" style="edgeStyle=orthogonalEdgeStyle;rounded=0;orthogonalLoop=1;jettySize=auto;html=1;exitX=0.5;exitY=1;exitDx=0;exitDy=0;entryX=0.5;entryY=0;entryDx=0;entryDy=0;" parent="1" source="TM_lnyqm9ptPYNRuYTzy-1" edge="1">
          <mxGeometry relative="1" as="geometry">
            <mxPoint x="320" y="400" as="targetPoint" />
          </mxGeometry>
        </mxCell>
        <mxCell id="TM_lnyqm9ptPYNRuYTzy-1" value="readln(n);" style="rounded=0;whiteSpace=wrap;html=1;" parent="1" vertex="1">
          <mxGeometry x="260" y="240" width="120" height="60" as="geometry" />
        </mxCell>
        <mxCell id="X1m1NMfoExm17qfkA7-S-2" style="edgeStyle=orthogonalEdgeStyle;rounded=0;orthogonalLoop=1;jettySize=auto;html=1;exitX=0.5;exitY=1;exitDx=0;exitDy=0;entryX=0.5;entryY=0;entryDx=0;entryDy=0;" edge="1" parent="1" source="X1m1NMfoExm17qfkA7-S-1" target="TM_lnyqm9ptPYNRuYTzy-1">
          <mxGeometry relative="1" as="geometry" />
        </mxCell>
        <mxCell id="X1m1NMfoExm17qfkA7-S-3" style="edgeStyle=orthogonalEdgeStyle;rounded=0;orthogonalLoop=1;jettySize=auto;html=1;exitX=0.5;exitY=0;exitDx=0;exitDy=0;entryX=0.5;entryY=1;entryDx=0;entryDy=0;" edge="1" parent="1" source="X1m1NMfoExm17qfkA7-S-1" target="sO1oYzhVz2CwoxDK4dTX-2">
          <mxGeometry relative="1" as="geometry" />
        </mxCell>
        <mxCell id="X1m1NMfoExm17qfkA7-S-1" value="write(&#39;Введите N:&#39;);" style="rounded=0;whiteSpace=wrap;html=1;" vertex="1" parent="1">
          <mxGeometry x="260" y="160" width="120" height="60" as="geometry" />
        </mxCell>
        <mxCell id="X1m1NMfoExm17qfkA7-S-4" value="S;=0&lt;br&gt;znam ;=1;" style="rounded=0;whiteSpace=wrap;html=1;" vertex="1" parent="1">
          <mxGeometry x="260" y="310" width="120" height="60" as="geometry" />
        </mxCell>
        <mxCell id="X1m1NMfoExm17qfkA7-S-9" style="edgeStyle=orthogonalEdgeStyle;rounded=0;orthogonalLoop=1;jettySize=auto;html=1;exitX=0.5;exitY=1;exitDx=0;exitDy=0;entryX=0.5;entryY=0;entryDx=0;entryDy=0;" edge="1" parent="1" source="X1m1NMfoExm17qfkA7-S-7" target="X1m1NMfoExm17qfkA7-S-8">
          <mxGeometry relative="1" as="geometry" />
        </mxCell>
        <mxCell id="X1m1NMfoExm17qfkA7-S-7" value="for i ;= 1 to N do" style="rounded=0;whiteSpace=wrap;html=1;" vertex="1" parent="1">
          <mxGeometry x="260" y="400" width="120" height="60" as="geometry" />
        </mxCell>
        <mxCell id="X1m1NMfoExm17qfkA7-S-12" style="edgeStyle=orthogonalEdgeStyle;rounded=0;orthogonalLoop=1;jettySize=auto;html=1;exitX=0.5;exitY=1;exitDx=0;exitDy=0;entryX=0.5;entryY=0;entryDx=0;entryDy=0;" edge="1" parent="1" source="X1m1NMfoExm17qfkA7-S-8" target="X1m1NMfoExm17qfkA7-S-11">
          <mxGeometry relative="1" as="geometry" />
        </mxCell>
        <mxCell id="X1m1NMfoExm17qfkA7-S-8" value="S;=S+znam/i;&lt;br&gt;znam := -znam;" style="rounded=0;whiteSpace=wrap;html=1;" vertex="1" parent="1">
          <mxGeometry x="260" y="490" width="120" height="60" as="geometry" />
        </mxCell>
        <mxCell id="X1m1NMfoExm17qfkA7-S-14" style="edgeStyle=orthogonalEdgeStyle;rounded=0;orthogonalLoop=1;jettySize=auto;html=1;exitX=0.5;exitY=1;exitDx=0;exitDy=0;entryX=0.5;entryY=0;entryDx=0;entryDy=0;" edge="1" parent="1" source="X1m1NMfoExm17qfkA7-S-11" target="X1m1NMfoExm17qfkA7-S-13">
          <mxGeometry relative="1" as="geometry" />
        </mxCell>
        <mxCell id="X1m1NMfoExm17qfkA7-S-11" value="Вывод данных writeln (&#39;Сумма =&#39;, S);" style="shape=parallelogram;perimeter=parallelogramPerimeter;whiteSpace=wrap;html=1;fixedSize=1;" vertex="1" parent="1">
          <mxGeometry x="240" y="585" width="160" height="75" as="geometry" />
        </mxCell>
        <mxCell id="X1m1NMfoExm17qfkA7-S-13" value="Конец" style="ellipse;whiteSpace=wrap;html=1;" vertex="1" parent="1">
          <mxGeometry x="260" y="700" width="120" height="80" as="geometry" />
        </mxCell>
      </root>
    </mxGraphModel>
  </diagram>
</mxfile>
